# xmcd
#
# Track frame offsets:
#	150
#	24500
#	43627
#	69796
#	85231
#	110555
#	133663
#	148855
#	167032
#	182329
#	195940
#	206979
#	223697
#	237569
#	256145
#	271578
#	284860
#	304111
#	325234
#
# Disc length: 4573 seconds
#
# Revision: 0
# Processed by: cddbd v1.4PL0 Copyright (c) Steve Scherf et al.
# Submitted via: dBpowerAMP V4.0
#
DISCID=1b11db13
DTITLE=Djordje Balasevic - Panonski Mornar
DYEAR=1995
DGENRE=Blues
TTITLE0=Svirajte mi jesen stize dunjo moja
TTITLE1=Neki novi klinci
TTITLE2=Prica o vasi vladackom
TTITLE3=Zivot je more
TTITLE4=Ne lomite mi bagrenje
TTITLE5=Odlazi cirkus
TTITLE6=Lepa protina kci
TTITLE7=Blues mutne vode
TTITLE8=Pesma o jednom petlu
TTITLE9=Oprosti mi katrin
TTITLE10=Panonski mornar
TTITLE11=Moja draga sad je u japanu
TTITLE12=Brakolomac
TTITLE13=Boza zvani pub
TTITLE14=Devojka sa cardas nogama
TTITLE15=Drago mi je zbog mog starog
TTITLE16=Mirka
TTITLE17=Slovenska
TTITLE18=Pa dobro gde si ti
EXTD=Djordje Balasevic/Panonski Mornar\n1.Dordje Balasevic/Svirajte mi jesen stize dunjo moja\n2.Dordje Balasevic/Neki novi klinci\n3.Dordje Balasevic/Prica o vlasi ladackom\n4.Djordje Balasevic/Zivot je more\n5.Dordje Balasevic/Ne lomite mi bagrenje\n6
EXTD=Dordje Balasevic/Odlazi cirkus\n7.Dordje Balasevic/Lepa protina kci\n8.Dordje Balasevic/Blues mutne vode\n9.Dordje Balasevic/Pesma o jednom petlu\n10.Dordje Balasevic/Oprosti mi katrin\n11.Dordje Balasevic/Panonski mornar\n12.Dordje Balasevic/Moja
EXTD=draga sad je u japanu\n13Dordje Balasevic/Brakolomac\n14.Dordje Balasevic/Boza zvani pub\n15.Djordje Balasevic/Devojka sa cardas nogama\n16.Dordje Balasevic/Drago mi je zbog mog starog\n17.Dordje Balasevic/Mirka\n18.Dordje Balasevic/Slovenska\n19.
EXTD=Dordje Balasevic/Pa dobro gdje si ti\n\n
EXTT0=
EXTT1=
EXTT2=
EXTT3=
EXTT4=
EXTT5=
EXTT6=
EXTT7=
EXTT8=
EXTT9=
EXTT10=
EXTT11=
EXTT12=
EXTT13=
EXTT14=
EXTT15=
EXTT16=
EXTT17=
EXTT18=
PLAYORDER=
